<svg xmlns="http://www.w3.org/2000/svg" xmlns:xlink="http://www.w3.org/1999/xlink" id="Capa_1" x="0px" y="0px" viewBox="0 0 200 200" style="enable-background:new 0 0 200 200;" xml:space="preserve">
<style type="text/css">
	.st0{fill:#FFFFFF;}
	.st1{fill:#19305A;}
	.st2{fill:#00D8E0;}
</style>
<title>icon</title>
<g id="_1">
	<text transform="matrix(1 0 0 1 55.38 -64.14)" style="fill:#1689CA; font-family:'Arial-BoldMT'; font-size:169px;">3</text>
</g>
<g id="circle-icons">
	<circle class="st0" cx="100" cy="100" r="96"></circle>
	<path class="st1" d="M100,198.9c-54.6,0-98.9-44.3-98.9-98.9S45.4,1.1,100,1.1s98.9,44.3,98.9,98.9l0,0   C198.8,154.6,154.6,198.8,100,198.9z M100,6.9C48.6,6.9,6.9,48.6,6.9,100s41.7,93.1,93.1,93.1s93.1-41.7,93.1-93.1   S151.4,6.9,100,6.9z"></path>
	<path class="st1" d="M98.2,38.1l-6.1,2.5c-3.3,1.4-4.8,5.1-3.5,8.4l0,0l1.6,3.8c-3.1,2.3-5.8,5-8.1,8.1l-3.8-1.6   c-3.3-1.4-7,0.2-8.4,3.5l0,0l-2.6,6.1c-1.4,3.3,0.2,7,3.5,8.4l5.6,2.3c1.2,0.6,2.7,0.1,3.3-1.2c0.6-1.2,0.1-2.7-1.2-3.3   c-0.1,0-0.2-0.1-0.3-0.1l-5.6-2.3c-0.7-0.3-1.1-1.2-0.8-1.9l2.6-6.1c0.3-0.8,1.2-1.1,1.9-0.8l5.6,2.3c1.1,0.4,2.3,0.1,3-0.9   c2.5-3.8,5.8-7,9.6-9.5c1-0.7,1.4-1.9,0.9-3l-2.3-5.6c-0.3-0.8,0.1-1.6,0.8-1.9l6.1-2.5c0.8-0.3,1.6,0,1.9,0.8l2.3,5.6   c0.4,1.1,1.6,1.7,2.8,1.5c4.4-0.9,9-0.9,13.5,0c1.2,0.2,2.3-0.4,2.8-1.5l2.3-5.6c0.3-0.7,1.2-1.1,1.9-0.8l6.1,2.5   c0.4,0.2,0.6,0.4,0.8,0.8c0.2,0.4,0.2,0.8,0,1.1l-2.3,5.6c-0.4,1.1-0.1,2.3,0.9,3c3.8,2.5,7,5.8,9.6,9.5c0.7,1,1.9,1.4,3,0.9   l5.6-2.3c0.4-0.1,0.8-0.1,1.1,0c0.4,0.1,0.7,0.4,0.8,0.8l2.5,6.1c0.2,0.4,0.2,0.8,0,1.1c-0.1,0.4-0.4,0.7-0.8,0.8l-5.6,2.3   c-1.1,0.5-1.7,1.6-1.5,2.8c0.9,4.4,0.9,9,0,13.5c-0.2,1.2,0.4,2.3,1.5,2.8l5.6,2.3c0.8,0.3,1.1,1.2,0.8,1.9l-2.6,6.1   c-0.3,0.8-1.2,1.1-1.9,0.8l0,0l-5.6-2.3c-1.1-0.4-2.3-0.1-3,0.9c-2.5,3.8-5.8,7-9.5,9.5c-1,0.7-1.4,1.9-0.9,3l2.3,5.6   c0.2,0.4,0.2,0.8,0,1.1c-0.2,0.4-0.4,0.7-0.8,0.8l-6.1,2.5c-0.7,0.3-1.6,0-1.9-0.8l0,0l-2.3-5.6c-0.4-1.3-1.9-2-3.1-1.5   c-1.3,0.4-2,1.9-1.5,3.1c0,0.1,0.1,0.2,0.1,0.3l2.3,5.6c0.7,1.6,1.9,2.8,3.5,3.5c0.8,0.3,1.6,0.5,2.4,0.5s1.7-0.2,2.5-0.5l6.1-2.5   c3.3-1.4,4.8-5.1,3.5-8.4l-1.6-3.8c3.1-2.3,5.8-5,8.1-8.1l3.8,1.6c3.3,1.4,7-0.2,8.4-3.5l0,0l2.6-6.1c1.4-3.3-0.2-7-3.5-8.4   l-3.8-1.6c0.6-3.8,0.6-7.6,0-11.4l3.8-1.6c1.6-0.7,2.8-1.9,3.5-3.5s0.7-3.3,0-4.9l-2.5-6.1c-1.3-3.3-5.1-4.8-8.4-3.5l0,0l-3.8,1.6   c-2.3-3.1-5-5.8-8-8.1l1.6-3.8c1.4-3.3-0.2-7-3.5-8.4l-6.1-2.5c-3.3-1.4-7,0.2-8.4,3.5l0,0l-1.6,3.8c-3.8-0.5-7.6-0.5-11.4,0   l-1.6-3.8C105.3,38.3,101.5,36.7,98.2,38.1C98.2,38,98.2,38,98.2,38.1L98.2,38.1z"></path>
	<path class="st2" d="M134,84.4c-0.1-11.1-9.1-20-20.2-20h-0.2c-11.1,0.1-20.1,9.2-20,20.3c0,1.4,1.1,2.5,2.5,2.5l0,0   c1.4,0,2.5-1.1,2.5-2.4c0,0,0,0,0-0.1c0-4,1.5-7.9,4.4-10.8c2.8-2.9,6.7-4.5,10.7-4.5h0.1c8.4,0,15.2,6.8,15.3,15.2   c0,8.4-6.8,15.2-15.2,15.3c-1.4,0-2.5,1.1-2.5,2.4c0,0,0,0,0,0.1c0,1.4,1.1,2.5,2.5,2.5l0,0C125.1,104.7,134.1,95.6,134,84.4z"></path>
	<path class="st1" d="M72,159.2h4.8c3,0,5.4-2.4,5.4-5.4v-2.5c2.4-0.7,4.7-1.6,6.8-2.9l1.8,1.8c1,1,2.4,1.6,3.8,1.6s2.8-0.6,3.8-1.6   l3.4-3.4c1-1,1.6-2.4,1.6-3.8c0-1.4-0.6-2.8-1.6-3.8l-1.7-1.8c1.2-2.2,2.2-4.5,2.8-6.9h2.5c3,0,5.4-2.4,5.4-5.4v-4.8   c0-3-2.4-5.4-5.4-5.4h-2.5c-0.6-2.4-1.6-4.7-2.8-6.9l1.8-1.8c1-1,1.6-2.4,1.6-3.8s-0.6-2.7-1.6-3.7l-3.4-3.4c-1-1-2.4-1.6-3.8-1.6   s-2.8,0.6-3.8,1.6l-1.9,2c-2.2-1.2-4.5-2.2-6.9-2.8V92c0-3-2.4-5.4-5.4-5.4H72c-3,0-5.4,2.4-5.4,5.4l0,0v2.5   c-2.4,0.6-4.7,1.6-6.9,2.8L58,95.5c-1-1-2.4-1.5-3.8-1.5c-1.4,0-2.8,0.6-3.8,1.6L47,99c-2.1,2.1-2.1,5.5,0,7.6l1.8,1.8   c-1.2,2.2-2.2,4.5-2.8,6.9h-2.5c-3,0-5.4,2.4-5.4,5.4v4.8c0,3,2.4,5.4,5.4,5.4H46c0.6,2.4,1.6,4.7,2.8,6.9l-1.8,1.7   c-2.1,2.1-2.1,5.5,0,7.6l3.4,3.4c1,1,2.4,1.6,3.8,1.6c1.4,0,2.8-0.6,3.8-1.6l1.8-1.8c2.2,1.2,4.5,2.2,6.9,2.9v2.5   C66.6,156.8,69,159.2,72,159.2z M60.8,143.3c-0.4-0.3-0.9-0.4-1.4-0.4c-0.7,0-1.3,0.3-1.8,0.7l-3.1,3.1c-0.1,0.2-0.4,0.2-0.5,0l0,0   l-3.4-3.4c-0.2-0.2-0.2-0.4,0-0.6l3.1-3.1c0.8-0.8,1-2.2,0.3-3.1c-1.8-2.7-3-5.7-3.7-8.8c-0.2-1.2-1.2-2-2.4-2h-4.5   c-0.2,0-0.4-0.2-0.4-0.4l0,0v-4.8c0-0.2,0.2-0.4,0.4-0.4l0,0h4.4c1.2,0,2.2-0.8,2.4-2c0.6-3.2,1.9-6.2,3.7-8.8   c0.7-1,0.5-2.3-0.3-3.1l-3.1-3.1c-0.2-0.2-0.2-0.4,0-0.6l3.4-3.4c0.1-0.2,0.4-0.2,0.5,0l0,0l3.1,3.2c0.8,0.8,2.2,1,3.1,0.3   c2.7-1.8,5.7-3,8.8-3.7c1.2-0.2,2-1.2,2-2.4V92c0-0.2,0.2-0.4,0.4-0.4l0,0h4.8c0.2,0,0.4,0.2,0.4,0.4l0,0v4.4c0,1.2,0.8,2.2,2,2.4   c3.2,0.6,6.2,1.9,8.8,3.7c1,0.7,2.3,0.5,3.1-0.3l3.1-3.1c0.1-0.2,0.4-0.2,0.5,0l0,0l3.4,3.4c0.1,0.1,0.1,0.2,0.1,0.3   c0,0.1,0,0.2-0.1,0.3l-3.1,3.1c-0.8,0.8-1,2.2-0.3,3.1c1.8,2.7,3,5.7,3.7,8.8c0.2,1.2,1.2,2,2.4,2h4.4c0.2,0,0.4,0.2,0.4,0.4l0,0   v4.8c0,0.2-0.2,0.4-0.4,0.4l0,0h-4c-1.2,0-2.2,0.8-2.4,2c-0.6,3.2-1.9,6.2-3.7,8.8c-0.7,1-0.5,2.3,0.3,3.1l3.1,3.1   c0.1,0.1,0.1,0.2,0.1,0.3s0,0.2-0.1,0.3l-3.4,3.4c-0.1,0.2-0.4,0.2-0.5,0l0,0l-3.1-3.1c-0.8-0.8-2.1-1-3.1-0.3   c-2.7,1.8-5.7,3-8.8,3.7c-1.2,0.2-2,1.2-2,2.4v4.4c0,0.2-0.2,0.4-0.4,0.4l0,0h-5c-0.2,0-0.4-0.2-0.4-0.4l0,0v-4.4   c0-1.2-0.8-2.2-2-2.4C66.5,146.4,63.5,145.1,60.8,143.3L60.8,143.3z"></path>
	<path class="st2" d="M89.1,123c0-8.1-6.6-14.7-14.7-14.7s-14.7,6.6-14.7,14.7s6.6,14.7,14.7,14.7S89.1,131.1,89.1,123z M64.6,123   c0-5.4,4.4-9.8,9.8-9.8s9.8,4.4,9.8,9.8c0,5.4-4.4,9.8-9.8,9.8S64.6,128.4,64.6,123z"></path>
</g>
</svg>